STARTFONT 2.1
FONT --Mobile-Regular-R-Normal--28-180-112-112-P-199-FONTSPECIFIC-0
SIZE 18 112 112
FONTBOUNDINGBOX 44 28 0 -6
METRICSSET 2
STARTPROPERTIES 19
FONT_ASCENT 22
FONT_DESCENT 6
PIXEL_SIZE 28
RESOLUTION_X 112
RESOLUTION_Y 112
POINT_SIZE 180
FACE_NAME "Mobile Regular 18"
FOUNDRY ""
FAMILY_NAME "Mobile"
WEIGHT_NAME "Regular"
RELATIVE_WEIGHT 50
SLANT "R"
SPACING "P"
SETWIDTH_NAME "Normal"
RELATIVE_SETWIDTH 50
ADD_STYLE_NAME ""
AVERAGE_WIDTH 199
CHARSET_REGISTRY "FONTSPECIFIC"
CHARSET_ENCODING "0"
ENDPROPERTIES
CHARS 122
STARTCHAR char00
ENCODING 0
SWIDTH 0 0
DWIDTH 0 0
BBX 0 0 0 -6
VVECTOR 0 -6
SWIDTH1 0 0
DWIDTH1 0 0
BITMAP 
ENDCHAR
STARTCHAR char02
ENCODING 2
SWIDTH 0 0
DWIDTH 0 0
BBX 0 0 0 -6
VVECTOR 0 -6
SWIDTH1 0 0
DWIDTH1 0 0
BITMAP 
ENDCHAR
STARTCHAR char03
ENCODING 3
SWIDTH 0 0
DWIDTH 0 0
BBX 0 0 0 -6
VVECTOR 0 -6
SWIDTH1 0 0
DWIDTH1 0 0
BITMAP 
ENDCHAR
STARTCHAR char04
ENCODING 4
SWIDTH 0 0
DWIDTH 0 0
BBX 0 0 0 -6
VVECTOR 0 -6
SWIDTH1 0 0
DWIDTH1 0 0
BITMAP 
ENDCHAR
STARTCHAR char05
ENCODING 5
SWIDTH 0 0
DWIDTH 0 0
BBX 0 0 0 -6
VVECTOR 0 -6
SWIDTH1 0 0
DWIDTH1 0 0
BITMAP 
ENDCHAR
STARTCHAR char09
ENCODING 9
SWIDTH 571 0
DWIDTH 16 0
BBX 0 0 16 -6
VVECTOR 16 -6
SWIDTH1 0 0
DWIDTH1 0 0
BITMAP 
ENDCHAR
STARTCHAR char0D
ENCODING 13
SWIDTH 0 0
DWIDTH 0 0
BBX 0 0 0 -6
VVECTOR 0 -6
SWIDTH1 0 0
DWIDTH1 0 0
BITMAP 
ENDCHAR
STARTCHAR char20
ENCODING 32
SWIDTH 179 0
DWIDTH 5 0
BBX 0 0 5 -6
VVECTOR 5 -6
SWIDTH1 0 0
DWIDTH1 0 0
BITMAP 
ENDCHAR
STARTCHAR char21
ENCODING 33
SWIDTH 679 0
DWIDTH 19 0
BBX 17 22 1 0
VVECTOR 10 22
SWIDTH1 0 -1000
DWIDTH1 0 -28
BITMAP 
007000
00A000
38CE00
449100
BEBF00
C1C080
80DE00
1E6900
254680
588380
608080
408000
008000
0FFC00
080400
0FFC00
040800
040800
040800
040800
040800
07F800
ENDCHAR
STARTCHAR char22
ENCODING 34
SWIDTH 1107 0
DWIDTH 31 0
BBX 29 18 1 0
VVECTOR 16 22
SWIDTH1 0 -1000
DWIDTH1 0 -28
BITMAP 
0FFFFF80
30000060
40F07810
819FCC08
D2800A58
850F8508
FE2023F8
04001100
04401100
08400080
08202080
080F8080
10000040
11555440
10000040
10000040
10000040
0FFFFF80
ENDCHAR
STARTCHAR char23
ENCODING 35
SWIDTH 821 0
DWIDTH 23 0
BBX 21 15 1 0
VVECTOR 12 22
SWIDTH1 0 -1000
DWIDTH1 0 -28
BITMAP 
03C000
00E000
3EE000
7F6E00
83BF00
1E7800
3F57C0
7CFBE0
7FFFF0
E83970
C81930
881110
882108
040200
03FC00
ENDCHAR
STARTCHAR char24
ENCODING 36
SWIDTH 643 0
DWIDTH 18 0
BBX 17 20 0 0
VVECTOR 9 22
SWIDTH1 0 -1000
DWIDTH1 0 -28
BITMAP 
066000
198000
335C00
6CE800
293E00
F26500
5A5980
E62600
5B5B00
358500
688000
408000
008000
07F000
055000
06B000
055000
06B000
055000
07F000
ENDCHAR
STARTCHAR char25
ENCODING 37
SWIDTH 714 0
DWIDTH 20 0
BBX 16 21 2 0
VVECTOR 10 22
SWIDTH1 0 -1000
DWIDTH1 0 -28
BITMAP 
0078
00F0
00C0
3D00
7270
42F8
030C
7A00
E638
C27C
8282
0100
0080
1FFF
1001
1FFF
0802
0404
1FFF
0802
07FC
ENDCHAR
STARTCHAR char26
ENCODING 38
SWIDTH 964 0
DWIDTH 27 0
BBX 25 16 1 0
VVECTOR 14 22
SWIDTH1 0 -1000
DWIDTH1 0 -28
BITMAP 
000E0000
03F98000
0FD4F000
1965A800
3EDB5400
66733C00
7FAFF300
297CDE00
7FFB7700
635FBE80
BC8C7500
C7CDDF00
FE770600
281E0000
000E0000
000E0000
ENDCHAR
STARTCHAR char27
ENCODING 39
SWIDTH 893 0
DWIDTH 25 0
BBX 21 25 2 -5
VVECTOR 13 22
SWIDTH1 0 -1000
DWIDTH1 0 -28
BITMAP 
3FFFF8
400018
FFFFE8
800028
800028
FFFFE8
800028
800028
800028
AAAAA8
800028
800028
AAAAA8
800028
800028
AAAAA8
800028
800028
AAAAA8
800028
800028
AAAAA8
800028
800030
FFFFE0
ENDCHAR
STARTCHAR char28
ENCODING 40
SWIDTH 607 0
DWIDTH 17 0
BBX 15 17 1 0
VVECTOR 9 22
SWIDTH1 0 -1000
DWIDTH1 0 -28
BITMAP 
0A40
25A0
1AD0
AE2C
58A8
B514
684C
5128
B454
692A
BA54
76AA
AD58
36B4
0FC0
0380
0380
ENDCHAR
STARTCHAR char29
ENCODING 41
SWIDTH 929 0
DWIDTH 26 0
BBX 23 14 1 0
VVECTOR 13 22
SWIDTH1 0 -1000
DWIDTH1 0 -28
BITMAP 
031C00
00E780
0E18F0
74E638
11D894
2E6660
57B1B8
BEC8DC
358DAA
5AE654
213C22
401800
001800
001800
ENDCHAR
STARTCHAR char2A
ENCODING 42
SWIDTH 714 0
DWIDTH 20 0
BBX 18 12 1 0
VVECTOR 10 22
SWIDTH1 0 -1000
DWIDTH1 0 -28
BITMAP 
03C000
056F00
7AB380
A81580
C14280
941500
408B80
AA22C0
D0B5C0
F577C0
77FF80
3DCE00
ENDCHAR
STARTCHAR char2B
ENCODING 43
SWIDTH 1000 0
DWIDTH 28 0
BBX 23 17 2 0
VVECTOR 14 22
SWIDTH1 0 -1000
DWIDTH1 0 -28
BITMAP 
1C0000
780000
E00048
C0006C
C0007C
E000FE
7FFFFE
7FFFFE
3FFFFC
3FFFF0
3FFFE0
3FFFE0
7FFFE0
770FE0
E70E70
E70E70
738738
ENDCHAR
STARTCHAR char2C
ENCODING 44
SWIDTH 893 0
DWIDTH 25 0
BBX 21 16 2 0
VVECTOR 13 22
SWIDTH1 0 -1000
DWIDTH1 0 -28
BITMAP 
001C00
001E00
001F00
000F80
0007C0
0003E0
7FFFF0
FFFFF8
FFFFF8
7FFFF0
0003E0
0007C0
000F80
001F00
001E00
001C00
ENDCHAR
STARTCHAR char2D
ENCODING 45
SWIDTH 750 0
DWIDTH 21 0
BBX 19 19 1 0
VVECTOR 11 22
SWIDTH1 0 -1000
DWIDTH1 0 -28
BITMAP 
03F800
03F800
03F800
03F800
03F800
03F800
FFFFE0
FFFFE0
FFFFE0
FFFFE0
FFFFE0
FFFFE0
FFFFE0
03F800
03F800
03F800
03F800
03F800
03F800
ENDCHAR
STARTCHAR char2E
ENCODING 46
SWIDTH 1036 0
DWIDTH 29 0
BBX 24 13 3 0
VVECTOR 15 22
SWIDTH1 0 -1000
DWIDTH1 0 -28
BITMAP 
0000C0
FE00A0
810090
408088
207F84
100002
080001
100002
207F84
408088
810090
FE00A0
0000C0
ENDCHAR
STARTCHAR char2F
ENCODING 47
SWIDTH 929 0
DWIDTH 26 0
BBX 22 22 2 0
VVECTOR 13 22
SWIDTH1 0 -1000
DWIDTH1 0 -28
BITMAP 
03FF00
07FF80
0FFFC0
1FFFE0
3FFFF0
7FFFF8
FFFFFC
E4131C
DB6D6C
CF6D6C
E76D1C
F36D7C
DB6D7C
E7737C
FFFFFC
FFFFFC
7FFFF8
3FFFF0
1FFFE0
0FFFC0
07FF80
03FF00
ENDCHAR
STARTCHAR char30
ENCODING 48
SWIDTH 607 0
DWIDTH 17 0
BBX 15 14 1 0
VVECTOR 9 22
SWIDTH1 0 -1000
DWIDTH1 0 -28
BITMAP 
7FF0
8008
8584
8242
8C22
AC22
9222
A024
A048
9090
8F20
4040
2080
1F00
ENDCHAR
STARTCHAR char31
ENCODING 49
SWIDTH 714 0
DWIDTH 20 0
BBX 15 28 2 -6
VVECTOR 10 22
SWIDTH1 0 -1000
DWIDTH1 0 -28
BITMAP 
7FFC
8002
8002
8FE2
9012
A10A
A00A
A00A
A00A
A00A
A00A
A00A
A00A
A00A
A00A
A00A
A00A
A00A
A00A
A00A
A00A
A00A
A00A
A00A
9012
8FE2
8002
7FFC
ENDCHAR
STARTCHAR char32
ENCODING 50
SWIDTH 750 0
DWIDTH 21 0
BBX 17 13 2 0
VVECTOR 11 22
SWIDTH1 0 -1000
DWIDTH1 0 -28
BITMAP 
7FFF00
800080
800080
9FFC80
A00280
A08280
A00280
A00280
A00280
A00280
9FFC80
400100
3FFE00
ENDCHAR
STARTCHAR char33
ENCODING 51
SWIDTH 714 0
DWIDTH 20 0
BBX 14 19 3 -6
VVECTOR 10 22
SWIDTH1 0 -1000
DWIDTH1 0 -28
BITMAP 
FFFC
8004
8004
7FF8
1020
17A0
14A0
1CE0
3030
2010
4008
4008
4008
4008
4008
2010
3030
1860
0780
ENDCHAR
STARTCHAR char34
ENCODING 52
SWIDTH 607 0
DWIDTH 17 0
BBX 13 10 2 0
VVECTOR 9 22
SWIDTH1 0 -1000
DWIDTH1 0 -28
BITMAP 
0700
0880
1040
1240
2020
2020
4010
8008
8008
FFF8
ENDCHAR
STARTCHAR char35
ENCODING 53
SWIDTH 679 0
DWIDTH 19 0
BBX 17 9 1 0
VVECTOR 10 22
SWIDTH1 0 -1000
DWIDTH1 0 -28
BITMAP 
7FFF00
800080
B17A80
AAAA80
BBAE80
AEAA80
BAAA80
800080
7FFF00
ENDCHAR
STARTCHAR char36
ENCODING 54
SWIDTH 857 0
DWIDTH 24 0
BBX 22 21 1 0
VVECTOR 12 22
SWIDTH1 0 -1000
DWIDTH1 0 -28
BITMAP 
0FFFF8
10000C
200014
7FFFC4
800024
BFFFA4
A000A4
A040A4
A008A4
A010A4
A020A4
A5C2A4
A000A4
A000A4
A040A4
A000A8
BFFFB8
800030
7FFFE0
2000C0
3FFF80
ENDCHAR
STARTCHAR char37
ENCODING 55
SWIDTH 786 0
DWIDTH 22 0
BBX 20 14 0 1
VVECTOR 10 22
SWIDTH1 0 -1000
DWIDTH1 0 -28
BITMAP 
0FFF00
0DFFE0
0DFFF0
0DFF30
0DFF30
0DFFF0
0DFFE0
0DFF00
0EFF00
07FE00
000000
FFFFF0
7FFFE0
1FFF80
ENDCHAR
STARTCHAR char38
ENCODING 56
SWIDTH 786 0
DWIDTH 22 0
BBX 20 19 1 0
VVECTOR 11 22
SWIDTH1 0 -1000
DWIDTH1 0 -28
BITMAP 
FFFFF0
7FFFE0
3FFFC0
1FEF80
0FD700
07C600
03EC00
01F800
00F000
006000
006000
006000
006000
006000
006000
006000
006000
07FE00
07FE00
ENDCHAR
STARTCHAR char39
ENCODING 57
SWIDTH 571 0
DWIDTH 16 0
BBX 14 27 1 -6
VVECTOR 8 22
SWIDTH1 0 -1000
DWIDTH1 0 -28
BITMAP 
AA3C
AA7C
AA7C
AA7C
AA7C
FE7C
FE7C
FE7C
7C7C
387C
387C
387C
387C
387C
387C
381C
381C
381C
381C
381C
381C
381C
381C
381C
381C
381C
381C
ENDCHAR
STARTCHAR char3A
ENCODING 58
SWIDTH 464 0
DWIDTH 13 0
BBX 7 28 3 -6
VVECTOR 7 22
SWIDTH1 0 -1000
DWIDTH1 0 -28
BITMAP 
7C
E2
C2
C2
C2
C2
C2
C2
C2
C2
C2
C2
C2
C2
C2
82
FE
C2
C2
C2
FE
44
44
54
44
28
10
10
ENDCHAR
STARTCHAR char3B
ENCODING 59
SWIDTH 679 0
DWIDTH 19 0
BBX 14 25 0 -4
VVECTOR 7 22
SWIDTH1 0 -1000
DWIDTH1 0 -28
BITMAP 
0038
004C
007C
0098
0088
0110
0110
0220
0220
0440
0440
0880
0880
1100
1100
2200
2200
4400
4400
8800
8800
9000
E000
C000
8000
ENDCHAR
STARTCHAR char3C
ENCODING 60
SWIDTH 607 0
DWIDTH 17 0
BBX 11 21 3 0
VVECTOR 9 22
SWIDTH1 0 -1000
DWIDTH1 0 -28
BITMAP 
8000
C000
E000
F000
F800
FC00
FE00
FF00
FF80
FFC0
FFE0
FC00
EC00
C600
8600
0300
0300
0180
0180
00C0
00C0
ENDCHAR
STARTCHAR char3D
ENCODING 61
SWIDTH 1000 0
DWIDTH 28 0
BBX 24 17 2 0
VVECTOR 14 22
SWIDTH1 0 -1000
DWIDTH1 0 -28
BITMAP 
000010
0000D8
0001F8
40007C
C000FE
E003FF
FFFFFF
7FFFF6
3FFFF0
3FFFF0
3FFFF0
7FFFF0
7FFFF0
770770
E70770
E70738
73839C
ENDCHAR
STARTCHAR char3E
ENCODING 62
SWIDTH 607 0
DWIDTH 17 0
BBX 11 21 3 0
VVECTOR 9 22
SWIDTH1 0 -1000
DWIDTH1 0 -28
BITMAP 
0020
0060
00E0
01E0
03E0
07E0
0FE0
1FE0
3FE0
7FE0
FFE0
07E0
06E0
0C60
0C20
1800
1800
3000
3000
6000
6000
ENDCHAR
STARTCHAR char3F
ENCODING 63
SWIDTH 821 0
DWIDTH 23 0
BBX 21 27 1 -6
VVECTOR 12 22
SWIDTH1 0 -1000
DWIDTH1 0 -28
BITMAP 
0FFF80
0F8F80
FE73F8
6CA9B0
2D45A0
1DA5C0
0D4580
0CA980
0E7380
0F8F80
FE73F8
6CA9B0
2D45A0
1DA5C0
0D4580
0CA980
0E7380
0F8F80
FE77F8
6CA9B0
2D45A0
1DA5C0
0D4580
0CA980
0E7380
0F8F80
0FFF80
ENDCHAR
STARTCHAR char40
ENCODING 64
SWIDTH 607 0
DWIDTH 17 0
BBX 16 22 1 0
VVECTOR 9 22
SWIDTH1 0 -1000
DWIDTH1 0 -28
BITMAP 
B800
4500
5212
421C
2A22
524A
0B45
28B8
1444
1140
1440
3040
1260
0880
0880
0480
7FF8
4008
7FF8
2010
2010
3FF0
ENDCHAR
STARTCHAR char41
ENCODING 65
SWIDTH 714 0
DWIDTH 20 0
BBX 18 28 1 -6
VVECTOR 10 22
SWIDTH1 0 -1000
DWIDTH1 0 -28
BITMAP 
004000
00A000
016800
023000
015400
02E800
055800
026A00
057400
08CC00
153600
0B6D00
09FA00
14AE00
157500
0E6E80
2BBB00
55DD00
36E680
4CD900
BB6E80
36F340
59C580
82D040
00C000
00C000
00C000
00C000
ENDCHAR
STARTCHAR char42
ENCODING 66
SWIDTH 893 0
DWIDTH 25 0
BBX 23 18 1 0
VVECTOR 13 22
SWIDTH1 0 -1000
DWIDTH1 0 -28
BITMAP 
000006
00000E
00001C
000038
000070
0000E0
0001C0
000380
000700
000E00
601C00
F03800
F87000
7CE000
3FC000
1F8000
0F0000
060000
ENDCHAR
STARTCHAR char43
ENCODING 67
SWIDTH 964 0
DWIDTH 27 0
BBX 26 23 1 -4
VVECTOR 14 22
SWIDTH1 0 -1000
DWIDTH1 0 -28
BITMAP 
007A8000
0114A000
00F3A800
1E91B400
1199A500
53CD2E00
34773C80
8E1F3F00
63FE63C0
3FFFF200
E63F8E80
4C7FCB00
9CFFFC80
F3EF1F80
56CD8600
4DDDFD80
12DCF100
3CF73F00
05B32200
09AADC00
02B19000
029CE000
00528000
ENDCHAR
STARTCHAR char44
ENCODING 68
SWIDTH 786 0
DWIDTH 22 0
BBX 16 23 4 -6
VVECTOR 12 22
SWIDTH1 0 -1000
DWIDTH1 0 -28
BITMAP 
0280
0768
0DD0
06AC
2DF8
2CBE
1D54
77BE
7DCD
1AB6
6F7E
954B
3BFE
4AD4
1BB2
0188
0180
0180
0180
0180
0180
0180
0180
ENDCHAR
STARTCHAR char45
ENCODING 69
SWIDTH 857 0
DWIDTH 24 0
BBX 24 12 0 0
VVECTOR 12 22
SWIDTH1 0 -1000
DWIDTH1 0 -28
BITMAP 
FFFFFF
FFFFFF
000000
AAAAAA
000000
FFFFFF
FFFFFF
000000
AAAAAA
000000
FFFFFF
FFFFFF
ENDCHAR
STARTCHAR char46
ENCODING 70
SWIDTH 679 0
DWIDTH 19 0
BBX 12 28 4 -6
VVECTOR 10 22
SWIDTH1 0 -1000
DWIDTH1 0 -28
BITMAP 
0200
0700
0D00
0B80
16C0
1F80
3940
2FC0
74A0
AFE0
79A0
DFD0
73A0
FCD0
BFE0
64B0
BFE0
D2F0
BFA0
D4E0
6FE0
7340
5EC0
3B80
1F00
0600
0600
0600
ENDCHAR
STARTCHAR char47
ENCODING 71
SWIDTH 821 0
DWIDTH 23 0
BBX 21 27 1 -6
VVECTOR 12 22
SWIDTH1 0 -1000
DWIDTH1 0 -28
BITMAP 
000200
14A540
294220
4456C0
1EA300
218250
004428
6525E0
D22E90
651940
AA1050
7932A0
4C31F8
BE3710
51B8E8
20F100
006000
006000
006000
006000
00C000
00C000
00C000
00C000
00C000
00C000
00C000
ENDCHAR
STARTCHAR char48
ENCODING 72
SWIDTH 643 0
DWIDTH 18 0
BBX 11 27 4 -6
VVECTOR 10 22
SWIDTH1 0 -1000
DWIDTH1 0 -28
BITMAP 
0400
0A00
0C00
1A00
0D00
1A00
1D00
3200
1D00
3A80
5700
2680
5B00
2680
5D40
7780
4B40
BDC0
E740
7EC0
CBA0
7EC0
A7A0
7EC0
A7A0
DB40
3E80
ENDCHAR
STARTCHAR char49
ENCODING 73
SWIDTH 857 0
DWIDTH 24 0
BBX 23 19 0 0
VVECTOR 12 22
SWIDTH1 0 -1000
DWIDTH1 0 -28
BITMAP 
000180
0003C0
0007E0
000FF0
020DB0
070FF0
0F8FF0
1DCDB0
FFFFFE
FFFFFE
DB6DB6
FFFFFE
FFFFFE
DB6C96
FFFC9E
FFFC9E
DB6C96
FFFC9E
FFFFFE
ENDCHAR
STARTCHAR char4A
ENCODING 74
SWIDTH 679 0
DWIDTH 19 0
BBX 12 28 3 -6
VVECTOR 9 22
SWIDTH1 0 -1000
DWIDTH1 0 -28
BITMAP 
0800
0500
1480
1680
3E80
3700
2E40
3680
1FA0
3720
2E60
36C0
5F60
66A0
B750
BEF0
5BB0
6F60
5650
4E90
3760
2660
16C0
0F80
0600
0600
0600
0600
ENDCHAR
STARTCHAR char4B
ENCODING 75
SWIDTH 643 0
DWIDTH 18 0
BBX 14 14 2 0
VVECTOR 9 22
SWIDTH1 0 -1000
DWIDTH1 0 -28
BITMAP 
0780
1AE0
3C50
6268
7EC8
A394
CFBC
9BE4
B694
7278
5308
3BF0
0C60
0380
ENDCHAR
STARTCHAR char4C
ENCODING 76
SWIDTH 786 0
DWIDTH 22 0
BBX 18 17 2 -2
VVECTOR 11 22
SWIDTH1 0 -1000
DWIDTH1 0 -28
BITMAP 
015000
1BE500
06B600
6F1480
199B00
9FB240
68E580
B3EF00
E6F940
2DB180
5C9E00
34C280
4EFF00
133C00
15E200
04B800
008000
ENDCHAR
STARTCHAR char4D
ENCODING 77
SWIDTH 821 0
DWIDTH 23 0
BBX 18 17 3 0
VVECTOR 12 22
SWIDTH1 0 -1000
DWIDTH1 0 -28
BITMAP 
004000
006000
007000
007800
FFFC00
FFFE00
FFFF00
FFFF80
FFFFC0
FFFF80
FFFF00
FFFE00
FFFC00
007800
007000
006000
004000
ENDCHAR
STARTCHAR char4E
ENCODING 78
SWIDTH 571 0
DWIDTH 16 0
BBX 13 22 1 -2
VVECTOR 8 22
SWIDTH1 0 -1000
DWIDTH1 0 -28
BITMAP 
3060
3860
3C60
3660
3360
31E0
30E0
3060
0000
0200
0700
0F80
1FC0
3FE0
7FF0
FFF8
0F80
0F80
0F80
0F80
0F80
0F80
ENDCHAR
STARTCHAR char4F
ENCODING 79
SWIDTH 857 0
DWIDTH 24 0
BBX 22 15 1 1
VVECTOR 12 22
SWIDTH1 0 -1000
DWIDTH1 0 -28
BITMAP 
000080
0000C0
0000E0
0007F0
003FF8
00FFFC
03FFF8
07FFF0
0FC0E0
1E00C0
380080
700000
600000
C00000
800000
ENDCHAR
STARTCHAR char50
ENCODING 80
SWIDTH 786 0
DWIDTH 22 0
BBX 18 20 2 0
VVECTOR 11 22
SWIDTH1 0 -1000
DWIDTH1 0 -28
BITMAP 
008000
01C000
03E000
07F000
0FF800
1FFC00
3FFE00
7FFF00
FFFF80
07F000
07F000
07F000
07F000
07F800
07FFC0
07FFC0
03FFC0
03FFC0
01FFC0
007FC0
ENDCHAR
STARTCHAR char51
ENCODING 81
SWIDTH 679 0
DWIDTH 19 0
BBX 17 17 1 0
VVECTOR 10 22
SWIDTH1 0 -1000
DWIDTH1 0 -28
BITMAP 
FFFF80
FC1F80
FC1F80
FC1F80
FC1F80
FC1F80
83E080
83E080
83E080
83E080
83E080
FC1F80
FC1F80
FC1F80
FC1F80
FC1F80
FFFF80
ENDCHAR
STARTCHAR char52
ENCODING 82
SWIDTH 571 0
DWIDTH 16 0
BBX 15 17 0 0
VVECTOR 8 22
SWIDTH1 0 -1000
DWIDTH1 0 -28
BITMAP 
0100
0380
07C0
0FE0
1FF0
3D78
7FFC
FD7E
FFFE
FFFE
FFFE
FFFE
E326
E3FE
E326
E3FE
FFFE
ENDCHAR
STARTCHAR char53
ENCODING 83
SWIDTH 929 0
DWIDTH 26 0
BBX 24 28 1 -6
VVECTOR 13 22
SWIDTH1 0 -1000
DWIDTH1 0 -28
BITMAP 
001000
04C640
0A2C88
0134B0
0715C5
14D314
2CB75A
7A9EA0
478DDA
9AEAF8
04B996
293E44
4494A9
32BAF4
8F31D2
3BB328
5CFED4
316C30
203808
002800
001800
001800
001800
001800
001800
001800
001800
001800
ENDCHAR
STARTCHAR char54
ENCODING 84
SWIDTH 571 0
DWIDTH 16 0
BBX 15 22 0 0
VVECTOR 8 22
SWIDTH1 0 -1000
DWIDTH1 0 -28
BITMAP 
FFFE
FFFE
EBAE
FFFE
EBAE
FFFE
FFFE
EBAE
FFFE
EBAE
FFFE
FFFE
EBAE
FFFE
EBAE
FFFE
FFFE
EB8E
FF8E
EB8E
FF8E
FFFE
ENDCHAR
STARTCHAR char55
ENCODING 85
SWIDTH 857 0
DWIDTH 24 0
BBX 23 19 0 0
VVECTOR 12 22
SWIDTH1 0 -1000
DWIDTH1 0 -28
BITMAP 
000FFE
000FFE
000DB6
000DB6
000FFE
000FFE
000DB6
000DB6
000FFE
000FFE
000DB6
000DB6
FFFFFE
FFFFFE
DB6C9E
FFFC9E
DB6C9E
FFFC9E
FFFFFE
ENDCHAR
STARTCHAR char56
ENCODING 86
SWIDTH 964 0
DWIDTH 27 0
BBX 23 27 2 -6
VVECTOR 14 22
SWIDTH1 0 -1000
DWIDTH1 0 -28
BITMAP 
00C000
01B000
031800
057B80
09D640
0AA940
0D5280
0683E0
1C4D58
29D2AC
536952
6AA44A
3DC114
1B1C4C
2AAA1C
3420F8
2A82B8
340454
7A936E
A95CAE
D4BB16
AB34AC
7CF358
0071E0
003000
003000
003000
ENDCHAR
STARTCHAR char57
ENCODING 87
SWIDTH 679 0
DWIDTH 19 0
BBX 17 17 1 0
VVECTOR 10 22
SWIDTH1 0 -1000
DWIDTH1 0 -28
BITMAP 
FFFF80
83E080
83E080
83E080
83E080
83E080
FC1F80
FC1F80
FC1F80
FC1F80
FC1F80
83E080
83E080
83E080
83E080
83E080
FFFF80
ENDCHAR
STARTCHAR char58
ENCODING 88
SWIDTH 964 0
DWIDTH 27 0
BBX 23 28 2 -6
VVECTOR 14 22
SWIDTH1 0 -1000
DWIDTH1 0 -28
BITMAP 
004410
12AAA0
455488
A46932
3E57C8
434E94
10DB42
4E75A8
9DE64C
246FF8
83385C
2D91B6
13F858
461924
290C08
400C00
200C00
000600
000600
000600
000600
000600
000600
000600
000600
000600
000600
000600
ENDCHAR
STARTCHAR char59
ENCODING 89
SWIDTH 429 0
DWIDTH 12 0
BBX 11 13 0 0
VVECTOR 6 22
SWIDTH1 0 -1000
DWIDTH1 0 -28
BITMAP 
0400
0E00
1F00
3F80
7FC0
FFE0
FFE0
FFE0
C660
C660
C7E0
C7E0
FFE0
ENDCHAR
STARTCHAR char5A
ENCODING 90
SWIDTH 857 0
DWIDTH 24 0
BBX 21 27 1 -6
VVECTOR 12 22
SWIDTH1 0 -1000
DWIDTH1 0 -28
BITMAP 
001000
002800
001000
015400
00A800
013500
02A200
007A80
053500
152140
0AA280
163D40
01F420
2AB150
1430B0
291B40
0E1CA0
59D920
243848
1A98F0
471F28
3AF950
D53840
203000
003000
003000
003000
ENDCHAR
STARTCHAR char5B
ENCODING 91
SWIDTH 1036 0
DWIDTH 29 0
BBX 27 27 1 -5
VVECTOR 15 22
SWIDTH1 0 -1000
DWIDTH1 0 -28
BITMAP 
00040000
00040000
00040000
003F8000
00C46000
03041800
06040C00
04040400
08040200
08040200
10040100
10040100
10040100
FFFFFFE0
10040100
10040100
10040100
08040200
08040200
04040400
06040C00
03041800
00C46000
003F8000
00040000
00040000
00040000
ENDCHAR
STARTCHAR char5C
ENCODING 92
SWIDTH 464 0
DWIDTH 13 0
BBX 5 27 4 -6
VVECTOR 7 22
SWIDTH1 0 -1000
DWIDTH1 0 -28
BITMAP 
20
70
F8
20
20
20
20
20
20
20
20
20
20
20
20
20
20
20
20
70
A8
A8
A8
A8
A8
D8
88
ENDCHAR
STARTCHAR char5D
ENCODING 93
SWIDTH 821 0
DWIDTH 23 0
BBX 21 21 1 -2
VVECTOR 12 22
SWIDTH1 0 -1000
DWIDTH1 0 -28
BITMAP 
002000
002000
002000
00F800
032600
042100
082080
082080
102040
102040
FFFFF8
102040
102040
082080
082080
042100
032600
00F800
002000
002000
002000
ENDCHAR
STARTCHAR char5E
ENCODING 94
SWIDTH 786 0
DWIDTH 22 0
BBX 19 25 1 -5
VVECTOR 11 22
SWIDTH1 0 -1000
DWIDTH1 0 -28
BITMAP 
071800
0EA400
0D4200
0CBD00
0D5280
0E6BC0
0C97A0
08BBA0
11EAE0
266AA0
4E7B60
939AA0
D39DE0
BFEB60
DC77E0
ECED40
B7D780
DBBD00
AC5600
57FC00
2AA800
147000
0AA000
044000
038000
ENDCHAR
STARTCHAR char5F
ENCODING 95
SWIDTH 1036 0
DWIDTH 29 0
BBX 21 21 4 0
VVECTOR 15 22
SWIDTH1 0 -1000
DWIDTH1 0 -28
BITMAP 
01FC00
060300
1800C0
326060
2280A0
4C8110
530210
940408
800808
95FFC8
952048
95FFC8
808008
810008
420010
440010
280020
300060
1800C0
060300
01FC00
ENDCHAR
STARTCHAR char60
ENCODING 96
SWIDTH 1107 0
DWIDTH 31 0
BBX 29 7 1 -1
VVECTOR 16 22
SWIDTH1 0 -1000
DWIDTH1 0 -28
BITMAP 
66200000
99231C88
911622D0
82184260
443C4270
28666498
10423880
ENDCHAR
STARTCHAR char61
ENCODING 97
SWIDTH 750 0
DWIDTH 21 0
BBX 20 15 0 -6
VVECTOR 10 22
SWIDTH1 0 -1000
DWIDTH1 0 -28
BITMAP 
77FEE0
880110
880110
880110
880110
880110
880110
880110
880110
880110
8FFF10
900090
800010
800010
7FFFE0
ENDCHAR
STARTCHAR char62
ENCODING 98
SWIDTH 429 0
DWIDTH 12 0
BBX 10 21 1 0
VVECTOR 6 22
SWIDTH1 0 -1000
DWIDTH1 0 -28
BITMAP 
0200
0700
0700
0700
0E00
1E00
1E00
3C00
3C00
7C00
7C00
DC00
DE00
1E00
0F00
1F00
3B00
7300
E300
6300
33C0
ENDCHAR
STARTCHAR char63
ENCODING 99
SWIDTH 500 0
DWIDTH 14 0
BBX 10 22 2 -1
VVECTOR 7 22
SWIDTH1 0 -1000
DWIDTH1 0 -28
BITMAP 
0C00
1E00
0C00
0C00
1E00
7F00
7F00
FF00
FF00
FF00
FF00
3FC0
3FC0
3FC0
3F80
3700
3600
3600
3600
3600
7700
E380
ENDCHAR
STARTCHAR char64
ENCODING 100
SWIDTH 1643 0
DWIDTH 46 0
BBX 42 15 2 -6
VVECTOR 23 22
SWIDTH1 0 -1000
DWIDTH1 0 -28
BITMAP 
77FEFFDFFB80
880100200440
880100200440
880100200440
880100200440
880100200440
880100200440
880100200440
880100200440
880100200440
8FFFFFFFFC40
900000000240
800000000040
800000000040
7FFFFFFFFF80
ENDCHAR
STARTCHAR char65
ENCODING 101
SWIDTH 500 0
DWIDTH 14 0
BBX 12 12 1 0
VVECTOR 7 22
SWIDTH1 0 -1000
DWIDTH1 0 -28
BITMAP 
0F00
1080
1080
6960
9690
8D10
8F10
9690
6960
1080
1080
0F00
ENDCHAR
STARTCHAR char66
ENCODING 102
SWIDTH 964 0
DWIDTH 27 0
BBX 25 23 1 -6
VVECTOR 14 22
SWIDTH1 0 -1000
DWIDTH1 0 -28
BITMAP 
07E00000
18500000
23500000
48900000
4D280080
A1440380
8E840D80
42041380
3D0A1780
08CF2700
04392F00
01DC3E00
00F23800
01B36000
01114000
00018000
00018000
00010000
00010000
00020000
00020000
00040000
00080000
ENDCHAR
STARTCHAR char67
ENCODING 103
SWIDTH 714 0
DWIDTH 20 0
BBX 18 17 1 0
VVECTOR 10 22
SWIDTH1 0 -1000
DWIDTH1 0 -28
BITMAP 
400000
300000
3E0000
2E0000
770080
FBC180
7B8E80
3D8D80
3D0BC0
3F3B00
033600
016E00
017F00
008000
020000
008000
020000
ENDCHAR
STARTCHAR char68
ENCODING 104
SWIDTH 500 0
DWIDTH 14 0
BBX 11 14 1 -4
VVECTOR 7 22
SWIDTH1 0 -1000
DWIDTH1 0 -28
BITMAP 
0300
3C80
4E80
5300
2E80
2480
1B00
E4C0
75E0
3600
0C00
0800
0800
0800
ENDCHAR
STARTCHAR char69
ENCODING 105
SWIDTH 571 0
DWIDTH 16 0
BBX 14 6 1 0
VVECTOR 8 22
SWIDTH1 0 -1000
DWIDTH1 0 -28
BITMAP 
7FF8
8004
9FE4
8004
8004
7FF8
ENDCHAR
STARTCHAR char6A
ENCODING 106
SWIDTH 607 0
DWIDTH 17 0
BBX 13 25 2 -5
VVECTOR 9 22
SWIDTH1 0 -1000
DWIDTH1 0 -28
BITMAP 
00E0
0130
0230
0230
0260
02C0
0300
0600
1A00
3200
6200
63C0
C630
C718
C718
C218
6218
7230
3FE0
0F80
0200
0200
0300
0380
0180
ENDCHAR
STARTCHAR char6B
ENCODING 107
SWIDTH 464 0
DWIDTH 13 0
BBX 11 19 1 0
VVECTOR 7 22
SWIDTH1 0 -1000
DWIDTH1 0 -28
BITMAP 
0200
0200
0300
0280
0240
0220
0220
0220
0240
0200
0200
0200
0200
0200
3E00
7E00
FE00
FC00
7800
ENDCHAR
STARTCHAR char6C
ENCODING 108
SWIDTH 750 0
DWIDTH 21 0
BBX 19 19 1 0
VVECTOR 11 22
SWIDTH1 0 -1000
DWIDTH1 0 -28
BITMAP 
03FFE0
03FFE0
020020
020020
03FFE0
03FFE0
020020
020020
020020
020020
020020
020020
020020
020020
3E03E0
7E07E0
FE0FE0
FC0FC0
780780
ENDCHAR
STARTCHAR char6D
ENCODING 109
SWIDTH 500 0
DWIDTH 14 0
BBX 12 22 1 -1
VVECTOR 7 22
SWIDTH1 0 -1000
DWIDTH1 0 -28
BITMAP 
0300
0780
0700
0300
0780
1FC0
1FE0
3FE0
37E0
7E60
6F60
EFD0
FFD0
FFA0
7F80
2D80
0D80
0D80
0D80
0D80
1DC0
38E0
ENDCHAR
STARTCHAR char6E
ENCODING 110
SWIDTH 964 0
DWIDTH 27 0
BBX 23 28 2 -6
VVECTOR 14 22
SWIDTH1 0 -1000
DWIDTH1 0 -28
BITMAP 
001000
003800
007C00
00FE00
01FF00
001000
001000
00FE00
031180
0C1060
081020
107C10
118310
210108
224488
226488
FE54FE
224C88
224488
210108
118310
107C10
081020
0C1060
031180
00FE00
001000
001000
ENDCHAR
STARTCHAR char6F
ENCODING 111
SWIDTH 750 0
DWIDTH 21 0
BBX 17 15 2 0
VVECTOR 11 22
SWIDTH1 0 -1000
DWIDTH1 0 -28
BITMAP 
7FFE00
879100
879080
879080
87F080
800080
9FFC80
A00280
A00280
A00280
A00280
A00280
A00280
A00280
7FFF00
ENDCHAR
STARTCHAR char70
ENCODING 112
SWIDTH 786 0
DWIDTH 22 0
BBX 20 3 0 0
VVECTOR 10 22
SWIDTH1 0 -1000
DWIDTH1 0 -28
BITMAP 
FF9FF0
FF9FF0
FF9FF0
ENDCHAR
STARTCHAR char71
ENCODING 113
SWIDTH 429 0
DWIDTH 12 0
BBX 12 18 0 0
VVECTOR 6 22
SWIDTH1 0 -1000
DWIDTH1 0 -28
BITMAP 
2080
71C0
FBE0
DF70
8E30
0410
2080
71C0
FBE0
DF70
8E30
0410
2080
71C0
FBE0
DF70
8E30
0410
ENDCHAR
STARTCHAR char72
ENCODING 114
SWIDTH 929 0
DWIDTH 26 0
BBX 22 26 2 -5
VVECTOR 13 22
SWIDTH1 0 -1000
DWIDTH1 0 -28
BITMAP 
0000C0
000380
000700
000E00
000C00
000800
0780F0
1FE3F8
307F1C
601C0C
400004
C00000
C00000
C00000
E00000
E00000
700000
780000
380000
1C0000
0E0000
0E0E10
071F30
073FE0
03E3E0
01C1C0
ENDCHAR
STARTCHAR char73
ENCODING 115
SWIDTH 1250 0
DWIDTH 35 0
BBX 31 15 2 -6
VVECTOR 18 22
SWIDTH1 0 -1000
DWIDTH1 0 -28
BITMAP 
77FEFFDC
88010022
88010022
88010022
88010022
88010022
88010022
88010022
88010022
88010022
8FFFFFE2
90000012
80000002
80000002
7FFFFFFC
ENDCHAR
STARTCHAR char74
ENCODING 116
SWIDTH 1000 0
DWIDTH 28 0
BBX 23 26 3 -5
VVECTOR 15 22
SWIDTH1 0 -1000
DWIDTH1 0 -28
BITMAP 
0000C0
0003C0
000FC0
000F80
001F80
001F00
001E00
0F99F0
3FE7FC
7FFFFE
7FFFF8
FFFFF0
FFFFE0
FFFFE0
FFFFE0
FFFFF0
FFFFF8
FFFFFE
FFFFFE
7FFFFE
7FFFFE
3FFFFC
3FFFFC
1FFFF8
1FE7F0
0781C0
ENDCHAR
STARTCHAR char75
ENCODING 117
SWIDTH 1143 0
DWIDTH 32 0
BBX 28 9 2 0
VVECTOR 16 22
SWIDTH1 0 -1000
DWIDTH1 0 -28
BITMAP 
FFFFFFC0
A0000170
A0000150
BFFFFF50
80000070
80000040
80000040
80000040
FFFFFFC0
ENDCHAR
STARTCHAR char76
ENCODING 118
SWIDTH 500 0
DWIDTH 14 0
BBX 9 21 2 -1
VVECTOR 7 22
SWIDTH1 0 -1000
DWIDTH1 0 -28
BITMAP 
0800
1C00
1C00
3400
3C00
7E00
7F00
FF00
DD00
FD00
7E80
3E80
3F00
3F00
3F00
3E00
3C00
1400
1400
1400
2200
ENDCHAR
STARTCHAR char77
ENCODING 119
SWIDTH 893 0
DWIDTH 25 0
BBX 23 12 1 0
VVECTOR 13 22
SWIDTH1 0 -1000
DWIDTH1 0 -28
BITMAP 
7FFF80
BFFFC0
DFFFE0
EFFFF0
F7FFF8
7BFFFC
3DFFFE
1E0004
0E0004
060004
020004
01FFFE
ENDCHAR
STARTCHAR char78
ENCODING 120
SWIDTH 679 0
DWIDTH 19 0
BBX 17 22 1 -1
VVECTOR 10 22
SWIDTH1 0 -1000
DWIDTH1 0 -28
BITMAP 
080600
1C1D00
1C0F80
180E00
7E0700
FF0F80
FF1F80
FF3F80
FF3F00
FF3F00
7F0F00
7E1F00
7E1F00
361D00
361F00
361D00
360F00
360600
360600
370600
3F8E00
1C1A00
ENDCHAR
STARTCHAR char79
ENCODING 121
SWIDTH 750 0
DWIDTH 21 0
BBX 17 21 2 0
VVECTOR 11 22
SWIDTH1 0 -1000
DWIDTH1 0 -28
BITMAP 
7FFF00
800080
9FFC80
A00280
A00280
A00280
A00280
A00280
A00280
A00280
9FFC80
800080
800080
807C80
800080
800080
800080
7FFF00
400100
400100
7FFF00
ENDCHAR
STARTCHAR char7A
ENCODING 122
SWIDTH 571 0
DWIDTH 16 0
BBX 14 14 1 0
VVECTOR 8 22
SWIDTH1 0 -1000
DWIDTH1 0 -28
BITMAP 
0060
0060
3020
3078
107C
7874
BC78
B8F8
78F0
3CF0
2CD0
2450
2470
66F0
ENDCHAR
STARTCHAR char7B
ENCODING 123
SWIDTH 1250 0
DWIDTH 35 0
BBX 33 17 1 0
VVECTOR 18 22
SWIDTH1 0 -1000
DWIDTH1 0 -28
BITMAP 
0000003000
0000004800
0000008400
03FFFF0200
0400000100
0800000080
1000000380
2000000F80
4000003F00
FFFFC0FC00
FFFF83F000
FFFF0FC000
00023F0000
0004FC0000
0007F00000
0007C00000
0007000000
ENDCHAR
STARTCHAR char7C
ENCODING 124
SWIDTH 714 0
DWIDTH 20 0
BBX 18 17 1 -1
VVECTOR 10 22
SWIDTH1 0 -1000
DWIDTH1 0 -28
BITMAP 
FFFFC0
FFFFC0
FFBFC0
FF9FC0
FF8FC0
0007C0
0003C0
0001C0
0000C0
0001C0
0003C0
0007C0
FF8FC0
FF9FC0
FFBFC0
FFFFC0
FFFFC0
ENDCHAR
STARTCHAR char7D
ENCODING 125
SWIDTH 893 0
DWIDTH 25 0
BBX 23 25 1 -5
VVECTOR 13 22
SWIDTH1 0 -1000
DWIDTH1 0 -28
BITMAP 
002000
003000
003800
003C00
003600
FFF300
FFF180
C000C0
C00060
C00030
C00018
C0000C
C00006
C0000C
C00018
C00030
C00060
C000C0
FFF180
FFF300
003600
003C00
003800
003000
002000
ENDCHAR
STARTCHAR char7E
ENCODING 126
SWIDTH 1107 0
DWIDTH 31 0
BBX 29 13 1 0
VVECTOR 16 22
SWIDTH1 0 -1000
DWIDTH1 0 -28
BITMAP 
001C0060
003C00E0
007C03E0
07FFFFE0
1BFFFFF0
7CD7FC78
FFFFE018
7FFF8000
007FC000
000FE000
0003F000
0000F800
00003800
ENDCHAR
STARTCHAR char7F
ENCODING 127
SWIDTH 0 0
DWIDTH 0 0
BBX 0 0 0 -6
VVECTOR 0 -6
SWIDTH1 0 0
DWIDTH1 0 0
BITMAP 
ENDCHAR
STARTCHAR char8C
ENCODING 140
SWIDTH 643 0
DWIDTH 18 0
BBX 15 15 3 -6
VVECTOR 11 22
SWIDTH1 0 -1000
DWIDTH1 0 -28
BITMAP 
77FC
8802
8802
8802
8802
8802
8802
8802
8802
8802
8FFC
9002
8002
8002
7FFC
ENDCHAR
STARTCHAR charA2
ENCODING 162
SWIDTH 607 0
DWIDTH 17 0
BBX 13 24 2 -4
VVECTOR 9 22
SWIDTH1 0 -1000
DWIDTH1 0 -28
BITMAP 
0700
0F80
0F80
0700
1FC0
3FE0
7FF0
FFF8
DFD8
DFD8
DFD8
7FF0
3FE0
3FE0
7FF0
7FF0
FFF8
FFF8
1DC0
1DC0
1DC0
1DC0
1DC0
1DC0
ENDCHAR
STARTCHAR charA3
ENCODING 163
SWIDTH 607 0
DWIDTH 17 0
BBX 13 24 2 -4
VVECTOR 9 22
SWIDTH1 0 -1000
DWIDTH1 0 -28
BITMAP 
0700
0F80
0F80
0700
3FE0
7FF0
FFF8
FFF8
DFD8
DFD8
DFD8
DFD8
DFD8
DFD8
1FC0
1DC0
1DC0
1DC0
1DC0
1DC0
1DC0
1DC0
1DC0
1DC0
ENDCHAR
STARTCHAR charA4
ENCODING 164
SWIDTH 643 0
DWIDTH 18 0
BBX 14 20 2 0
VVECTOR 9 22
SWIDTH1 0 -1000
DWIDTH1 0 -28
BITMAP 
FFFC
8004
8004
8FC4
9024
94A4
94A4
9024
8FC4
8004
8004
8FC4
9024
94A4
94A4
9024
8FC4
8004
8004
FFFC
ENDCHAR
STARTCHAR charA5
ENCODING 165
SWIDTH 179 0
DWIDTH 5 0
BBX 0 0 5 -6
VVECTOR 5 -6
SWIDTH1 0 0
DWIDTH1 0 0
BITMAP 
ENDCHAR
STARTCHAR charA6
ENCODING 166
SWIDTH 179 0
DWIDTH 5 0
BBX 0 0 5 -6
VVECTOR 5 -6
SWIDTH1 0 0
DWIDTH1 0 0
BITMAP 
ENDCHAR
STARTCHAR charA7
ENCODING 167
SWIDTH 393 0
DWIDTH 11 0
BBX 11 15 0 -6
VVECTOR 6 22
SWIDTH1 0 -1000
DWIDTH1 0 -28
BITMAP 
7FE0
8000
8000
8000
8000
8000
8000
8000
8000
8000
FFE0
8000
8000
8000
FFE0
ENDCHAR
STARTCHAR charAA
ENCODING 170
SWIDTH 679 0
DWIDTH 19 0
BBX 15 20 2 -5
VVECTOR 10 22
SWIDTH1 0 -1000
DWIDTH1 0 -28
BITMAP 
07C0
1830
2008
4004
4004
8002
8002
8002
8002
8002
4004
4004
2008
1830
07C0
0100
0100
07C0
0100
0100
ENDCHAR
STARTCHAR charB0
ENCODING 176
SWIDTH 179 0
DWIDTH 5 0
BBX 0 0 5 -6
VVECTOR 5 -6
SWIDTH1 0 0
DWIDTH1 0 0
BITMAP 
ENDCHAR
STARTCHAR charB2
ENCODING 178
SWIDTH 750 0
DWIDTH 21 0
BBX 17 17 2 0
VVECTOR 11 22
SWIDTH1 0 -1000
DWIDTH1 0 -28
BITMAP 
3FFF80
7FFF80
7FFF80
3FFF80
003F80
007F80
00FF80
01F780
03E780
07C780
0F8780
1F0780
3E0780
7C0780
F80300
F00000
E00000
ENDCHAR
STARTCHAR charB3
ENCODING 179
SWIDTH 893 0
DWIDTH 25 0
BBX 21 21 2 -2
VVECTOR 13 22
SWIDTH1 0 -1000
DWIDTH1 0 -28
BITMAP 
003FF8
002008
001008
000808
000408
000808
001008
002088
0FC148
100228
200418
400800
800800
7F0800
010800
010800
010800
011000
012000
014000
008000
ENDCHAR
STARTCHAR charB4
ENCODING 180
SWIDTH 1036 0
DWIDTH 29 0
BBX 24 13 3 0
VVECTOR 15 22
SWIDTH1 0 -1000
DWIDTH1 0 -28
BITMAP 
0000C0
FE00A0
810090
408088
207F84
100002
080001
100002
207F84
408088
810090
FE00A0
0000C0
ENDCHAR
STARTCHAR charB5
ENCODING 181
SWIDTH 786 0
DWIDTH 22 0
BBX 18 18 2 0
VVECTOR 11 22
SWIDTH1 0 -1000
DWIDTH1 0 -28
BITMAP 
07FFC0
03FFC0
01FFC0
00FFC0
01FFC0
03FFC0
07FFC0
0FFFC0
1FFFC0
3FFFC0
7FFDC0
FFF8C0
7FF040
3FE000
1FC000
0F8000
070000
020000
ENDCHAR
STARTCHAR charB9
ENCODING 185
SWIDTH 1107 0
DWIDTH 31 0
BBX 26 26 2 -5
VVECTOR 15 22
SWIDTH1 0 -1000
DWIDTH1 0 -28
BITMAP 
001E0000
00210000
00408000
00804000
01002000
02001000
04A00800
08400400
10800200
21C00100
43C00080
80E00040
80FFC040
80FFA040
807F8040
40418080
20408100
10408200
08408400
04408800
02001000
01002000
00804000
00408000
00210000
001E0000
ENDCHAR
STARTCHAR charBB
ENCODING 187
SWIDTH 714 0
DWIDTH 20 0
BBX 16 23 2 -4
VVECTOR 10 22
SWIDTH1 0 -1000
DWIDTH1 0 -28
BITMAP 
03F8
07FC
1E0C
2EEC
360C
260C
6FFE
AFFE
AFF6
AFF6
AFF6
AFF6
AFF6
AFF6
AFF6
AFF6
AFF6
4FF6
0FF6
0FFE
1FFF
1FFF
1FFF
ENDCHAR
STARTCHAR charBC
ENCODING 188
SWIDTH 821 0
DWIDTH 23 0
BBX 19 27 2 -6
VVECTOR 12 22
SWIDTH1 0 -1000
DWIDTH1 0 -28
BITMAP 
030000
050000
090000
110000
230000
448000
8EC000
912000
B11000
CE0800
880400
D00200
A00160
A000A0
E00120
A40220
900420
890860
8410A0
025120
011200
009400
005800
003000
001000
001000
001000
ENDCHAR
STARTCHAR charC1
ENCODING 193
SWIDTH 786 0
DWIDTH 22 0
BBX 18 18 2 0
VVECTOR 11 22
SWIDTH1 0 -1000
DWIDTH1 0 -28
BITMAP 
0007C0
0000C0
000140
07C240
183440
200800
400400
400400
800200
800200
800200
800200
800200
400400
400400
200800
183000
07C000
ENDCHAR
STARTCHAR charD9
ENCODING 217
SWIDTH 1071 0
DWIDTH 30 0
BBX 24 16 2 0
VVECTOR 14 22
SWIDTH1 0 -1000
DWIDTH1 0 -28
BITMAP 
01C000
038000
070004
0C0FCC
383FEC
6CFFF8
FFFFF0
FFFFF0
FFFFF0
1FFFF3
0FFFEF
0FE1FC
1E01F8
7C00E0
E00000
800000
ENDCHAR
STARTCHAR missing
ENCODING -1
SWIDTH 714 0
DWIDTH 20 0
BBX 16 17 2 0
VVECTOR 10 22
SWIDTH1 0 -1000
DWIDTH1 0 -28
BITMAP 
FFFF
8001
8001
8001
8001
8001
8001
8001
8001
8001
8001
8001
8001
8001
8001
8001
FFFF
ENDCHAR
ENDFONT
